<svg xmlns="http://www.w3.org/2000/svg" width="152" height="35" viewBox="0 0 152 35">
  <g fill="none" fill-rule="evenodd">
    <path fill="#FFF" d="M23.0521746,20.9743649 C23.7764657,19.4286892 24.1784283,17.7032838 24.1784283,15.8870676 C24.1784283,11.6936892 22.0339958,7.99977027 18.7784782,5.83733784 C20.7181372,3.84706757 22.8161164,1.8795 25.0515593,-9.45945946e-05 C22.4321663,1.53706757 19.9720416,3.29652703 17.6986778,5.19693243 C16.0225696,4.32004054 14.1122994,3.82058108 12.0882661,3.82058108 C5.41322245,3.82058108 0,9.22571622 0,15.8870676 C0,18.8942297 1.10444906,21.6488243 2.92939709,23.7573378 C0.612424116,28.7557162 0.208565489,32.7693649 2.2496632,34.1267973 C4.43391268,35.5816622 9.18541372,32.9453108 12.0370728,28.6526081 C12.0370728,28.6526081 7.62780873,32.6227432 5.20465696,31.7127432 C3.71341372,31.1480135 3.7086736,28.8739595 4.93826195,25.6113919 C6.94143867,27.0804459 9.41293971,27.9497703 12.0882661,27.9497703 C15.4016133,27.9497703 18.4002162,26.6197703 20.5854137,24.4696351 L21.012973,25.2755811 C26.2830437,24.8489595 42.0145696,24.4336892 42.0145696,24.4336892 C42.0145696,23.6797703 31.5995676,24.3627432 23.0521746,20.9743649 M1.45237422,15.8870676 C1.45237422,10.0231486 6.21335551,5.27260811 12.0882661,5.27260811 C13.6629356,5.27260811 15.1560748,5.61314865 16.5041663,6.22422973 C10.7382786,11.3086892 6.27402911,17.2180135 3.6328316,22.3242297 C2.2648316,20.5373378 1.45237422,18.3086892 1.45237422,15.8870676 M12.0882661,26.4996351 C9.60349272,26.4996351 7.3187526,25.6511216 5.50802495,24.227473 C7.61453638,19.4826081 11.9052973,13.1201757 17.7565073,6.90531081 C20.7437339,8.78490541 22.7279501,12.1042297 22.7279501,15.8870676 C22.7279501,17.5008514 22.3629605,19.0332838 21.7154595,20.4058514 C19.8601746,19.5469324 18.1300291,18.4732838 16.6615385,17.1205811 L19.8668108,23.1254459 C17.9243077,25.2017973 15.1598669,26.4996351 12.0882661,26.4996351"/>
    <polygon fill="#FFF" points="95.183 14.777 97.153 12.166 90.292 12.166 91.98 9.928 98.842 9.928 100.817 7.32 87.118 7.32 77.695 19.796 91.396 19.796 93.363 17.185 86.504 17.185 88.318 14.777"/>
    <polygon fill="#FFF" points="104.697 7.32 95.277 19.797 102.112 19.797 111.535 7.32"/>
    <polygon fill="#FFF" points="127.472 7.32 122.697 13.645 121.227 7.32 115.887 7.32 106.464 19.797 110.987 19.797 115.722 13.528 117.176 19.797 122.573 19.797 131.998 7.32"/>
    <path fill="#FFF" d="M149.82463 7.32001351L138.836073 7.31812162C136.95614 7.31812162 135.286668 8.21487838 134.233412 9.61014865L128.562327 17.1200135C128.349969 17.3990676 128.225778 17.7481216 128.225778 18.1246081 128.225778 19.0478514 128.972822 19.7970405 129.898094 19.7970405L140.885703 19.7970405C142.767533 19.7970405 144.439849 18.8974459 145.49026 17.5059595L146.85352 15.7010946 148.439566 15.7010946 150.42473 13.0713649 142.008165 13.0713649 139.351799 16.5902838C139.078768 16.9516351 138.644572 17.1843378 138.157287 17.1843378L136.224264 17.1843378C135.979674 17.1843378 135.786277 16.989473 135.786277 16.7492027 135.786277 16.6498784 135.819458 16.5600135 135.876339 16.4900135L140.381354 10.5220405C140.653437 10.1597432 141.085736 9.92798649 141.574917 9.92798649L143.510784 9.92798649C143.754427 9.92798649 143.946876 10.1228514 143.946876 10.3612297 143.946876 10.4577162 143.911799 10.549473 143.858709 10.6251486L143.126834 11.5947432 149.955458 11.5947432 151.163242 9.99231081C151.373703 9.71609459 151.498842 9.36893243 151.498842 8.98960811 151.498842 8.06825676 150.746111 7.32001351 149.82463 7.32001351M81.5130811 8.98960811C81.5130811 8.06825676 80.7650894 7.32001351 79.837921 7.32001351L68.856948 7.32001351C66.9741705 7.32001351 65.3046985 8.21487838 64.2504948 9.61014865L58.5775135 17.1200135C58.366104 17.4000135 58.2428607 17.7481216 58.2428607 18.1246081 58.2428607 19.0478514 58.9908524 19.7970405 59.9161247 19.7970405L70.8999418 19.7970405C72.7836674 19.7970405 74.4540873 18.8974459 75.507343 17.5059595L81.1784283 9.9942027C81.3888898 9.71609459 81.5130811 9.36893243 81.5130811 8.98960811M73.872948 10.6251486L69.3660374 16.5902838C69.0939543 16.9516351 68.6626029 17.1843378 68.172474 17.1843378L66.235659 17.1843378C65.9967568 17.1843378 65.8043077 16.989473 65.8043077 16.7520405 65.8043077 16.6498784 65.8365405 16.5600135 65.8886819 16.4900135L70.3955925 10.5248784C70.6705198 10.1654189 71.1037672 9.92798649 71.5891559 9.92798649L73.5269189 9.92798649C73.7677173 9.92798649 73.9601663 10.1228514 73.9601663 10.3612297 73.9601663 10.4577162 73.9279335 10.549473 73.872948 10.6251486M55.6747559 13.8620811C57.0209514 13.5593784 58.1936582 12.7818108 58.9966353 11.7166757L60.2963775 9.99410811C60.5077871 9.716 60.6329264 9.36883784 60.6329264 8.98951351 60.6329264 8.06816216 59.8849347 7.31991892 58.9596624 7.31991892L51.9357455 7.31991892 45.0995376 7.31991892 35.6761696 19.7969459 42.3929264 19.7969459 50.0178911 19.7969459C51.9016166 19.7969459 53.5729846 18.8973514 54.6243443 17.5058649L55.9553713 15.7435676C56.1241198 15.5231622 56.2208183 15.2403243 56.2208183 14.9414054 56.2208183 14.4977568 56.0046686 14.1070811 55.6747559 13.8620811M49.330573 15.4720811L48.4830387 16.5920811C48.2119035 16.9515405 47.7815002 17.1842432 47.2913713 17.1842432L44.4852175 17.1842432 46.3016333 14.7777568 48.9835958 14.7777568C49.2234462 14.7777568 49.4196873 14.9707297 49.4196873 15.211 49.4196873 15.3103243 49.3865064 15.4011351 49.330573 15.4720811M52.9946894 10.6250541L52.2741904 11.5757297C52.0011593 11.9332973 51.5688599 12.166 51.080627 12.166L48.2716291 12.1650541 49.9657497 9.92789189 52.6458162 9.92789189C52.8856665 9.92789189 53.0809597 10.1227568 53.0809597 10.3611351 53.0809597 10.4576216 53.0487268 10.5493784 52.9946894 10.6250541"/>
  </g>
</svg>
