<svg xmlns="http://www.w3.org/2000/svg" xmlns:xlink="http://www.w3.org/1999/xlink" width="24" height="24" viewBox="0 0 24 24">
    <path id="filled-a" d="M11.992,0 C7.576,0 4,3.584 4,8 C4,12.416 7.576,16 11.992,16 C16.416,16 20,12.416 20,8 C20,3.584 16.416,0 11.992,0 Z M12,14 C8.685,14 6,11.315 6,8 C6,4.685 8.685,2 12,2 C15.315,2 18,4.685 18,8 C18,11.315 15.315,14 12,14 Z M12.3891931,4.10806932 L12.3891931,8.19459653 L15.8919307,10.2728875 L15.3081411,11.2303025 L11.2216139,8.77838614 L11.2216139,4.10806932 L12.3891931,4.10806932 Z M3.99926078,24 L3.99926078,18.0272071 L6.00167516,18.0272071 L6.00167516,24 L3.99926078,24 Z M10.0062966,24.0272676 L6.99769495,21.0203987 L10.0062966,18.0135298 L10.0062966,20.0096743 L20.0182796,20.0096743 L20.0182796,22.0104393 L10.0062966,22.0104393 L10.0062966,24.0272676 Z"/>
</svg>
