<svg xmlns="http://www.w3.org/2000/svg" xmlns:xlink="http://www.w3.org/1999/xlink" width="40" height="40" viewBox="0 0 40 40">
  <path id="icon-meteor-a" d="M7,4 L31.6478274,27.5516209 C31.6478274,27.5516209 32.1299722,28.2215469 31.5163333,28.8765856 C30.9173049,29.5316244 30.1283407,28.9659091 30.1283407,28.9659091 L7,4 L7,4 Z M14.3198349,6.36707188 L33.4595231,24.3062016 C33.4595231,24.3062016 33.9270574,24.9612403 33.328029,25.5865046 C32.7143902,26.2862051 31.9254259,25.7204898 31.9254259,25.7204898 L14.3198349,6.36707188 L14.3198349,6.36707188 Z M9.17695689,11.4436223 L28.316645,29.3529774 C28.316645,29.3529774 28.7841794,30.0080162 28.185151,30.663055 C27.5715121,31.332981 26.7825479,30.7970402 26.7825479,30.7970402 L9.17695689,11.4436223 L9.17695689,11.4436223 Z M20.5146653,8.40662438 L33.8832261,20.926797 C33.8832261,20.926797 34.204656,21.3883016 33.7809529,21.8646934 C33.3718604,22.3113108 32.8166633,21.9093552 32.8166633,21.9093552 L20.5146653,8.40662438 L20.5146653,8.40662438 Z M10.871769,17.2645349 L24.2403298,29.7995948 C24.2403298,29.7995948 24.5617596,30.2610994 24.1526671,30.7226039 C23.7289641,31.1841085 23.173767,30.7970402 23.173767,30.7970402 L10.871769,17.2645349 L10.871769,17.2645349 Z M26.8409897,11.3245243 L32.9335469,17.0114517 C32.9335469,17.0114517 33.0942618,17.2198732 32.8604946,17.4431818 C32.6851693,17.6516032 32.4075707,17.4729563 32.4075707,17.4729563 L26.8409897,11.3245243 L26.8409897,11.3245243 Z M13.9545737,23.5022903 L20.0617414,29.1743305 C20.0617414,29.1743305 20.2224563,29.3976392 20.0032996,29.6060606 C19.7987533,29.8293693 19.5211548,29.6358351 19.5211548,29.6358351 L13.9545737,23.5022903 Z"/>
</svg>
