<!-- <svg xmlns="http://www.w3.org/2000/svg" xmlns:xlink="http://www.w3.org/1999/xlink" width="24" height="24" viewBox="0 0 24 24">
    <polygon id="filled-a" points="16 12 16 4 17 4 17 2 7 2 7 4 8 4 8 12 6 14 6 16 11.2 16 11.2 22 12.8 22 12.8 16 18 16 18 14"/>
</svg> -->

<svg xmlns="http://www.w3.org/2000/svg" viewBox="0 0 24 24">
  <path  d="M19.083 1c0 1.018-1.424 1.907-3.541 2.382V11c2.926.652 4.958 2.086 4.958 3.751h-7.792V23h-1.416v-8.25H3.5c0-1.665 2.032-3.1 4.958-3.751V3.382C6.341 2.907 4.917 2.018 4.917 1h14.166z"/>
</svg>